# xmcd
#
# Track frame offsets:
#	150
#	7500
#	19075
#	33072
#	46740
#	60402
#	67315
#	75135
#	80562
#	91365
#	106105
#	117457
#	128712
#	140495
#	149290
#	163322
#
# Disc length: 2300 seconds
#
# Revision: 1
# Processed by: cddbd v1.5.2PL0 Copyright (c) Steve Scherf et al.
# Submitted via: audiograbber 1.83.01
#
DISCID=c208fa10
DTITLE=George Jones - Classic Country Collection
DYEAR=1997
DGENRE=Country
TTITLE0=I'm Ragged But Right  
TTITLE1=Tender Years
TTITLE2=Things Have Gone To Pieces
TTITLE3=Weddding Bells
TTITLE4=Cold Cold Heart
TTITLE5=Ways Of The World, Wants Of A Woman
TTITLE6=Jambalaya
TTITLE7=Liberty 
TTITLE8=Dont You Ever Get Tired Of Hurting Me
TTITLE9=On The Banks Of The Ponhartrain
TTITLE10=A House Without Love Is Not A Home
TTITLE11=World Of Forgotten People
TTITLE12=Tarnished Angel
TTITLE13=Please Dont Let That Woman Get Me
TTITLE14=Open Pitt Mine
TTITLE15=Jonesy
EXTD=
EXTT0=
EXTT1=
EXTT2=
EXTT3=
EXTT4=
EXTT5=
EXTT6=
EXTT7=
EXTT8=
EXTT9=
EXTT10=
EXTT11=
EXTT12=
EXTT13=
EXTT14=
EXTT15=
PLAYORDER=
